<?xml version="1.0" encoding="UTF-8" standalone="no"?>
<!DOCTYPE svg PUBLIC "-//W3C//DTD SVG 1.1//EN" "http://www.w3.org/Graphics/SVG/1.1/DTD/svg11.dtd">
<svg version="1.1" xmlns="http://www.w3.org/2000/svg" xmlns:xlink="http://www.w3.org/1999/xlink" preserveAspectRatio="xMidYMid meet" viewBox="0 0 660 660" width="660" height="660"><defs><path d="M111.22 133.79C62.76 184.03 5.5 188.83 5.84 187.3C6.19 185.77 16.34 273.07 26.61 307.85C26.61 307.85 26.61 307.85 26.61 307.85C54.48 421.89 125.22 520.82 224.14 584.05C237.87 592.83 272.18 614.76 327.08 649.86C371.42 625.79 399.13 610.74 410.21 604.73C547.17 530.38 636.86 391.42 648.22 235.99C648.78 228.36 650.17 209.28 652.4 178.76C652.4 173.77 652.4 170.66 652.4 169.41C652.4 77.42 577.83 2.85 485.84 2.85C442.51 2.85 334.21 2.85 160.92 2.85C150.59 66.5 134.02 110.15 111.22 133.79Z" id="ah7PLGF5C"></path></defs><g><g><g><use xlink:href="#b1a5BjxZd2" opacity="1" fill="#272727" fill-opacity="1"></use></g><g><g><use xlink:href="#ah7PLGF5C" opacity="1" fill-opacity="0" stroke="#ffffff" stroke-width="15" stroke-opacity="1"></use></g></g></g></g></svg>