<?xml version="1.0" encoding="UTF-8"?>
<!DOCTYPE svg PUBLIC "-//W3C//DTD SVG 1.1//EN" "http://www.w3.org/Graphics/SVG/1.1/DTD/svg11.dtd">
<!-- Creator: CorelDRAW X6 -->
<svg xmlns="http://www.w3.org/2000/svg" xml:space="preserve" width="2.18722cm" height="2.11666cm" version="1.1" style="shape-rendering:geometricPrecision; text-rendering:geometricPrecision; image-rendering:optimizeQuality; fill-rule:evenodd; clip-rule:evenodd"
viewBox="0 0 2187 2117"
 xmlns:xlink="http://www.w3.org/1999/xlink">
 <defs>
  <style type="text/css">
   <![CDATA[
    .fil0 {fill:#008DD2}
    .fil1 {fill:#FEFEFE}
   ]]>
  </style>
 </defs>
 <g id="Layer_x0020_1">
  <metadata id="CorelCorpID_0Corel-Layer"/>
  <path class="fil0" d="M1537 20c398,0 637,248 639,632l0 15c-1,71 -9,147 -27,227 -124,566 -533,969 -1036,1180 -636,-264 -1002,-788 -1069,-1496 281,-47 501,-244 486,-558l1007 0 0 0z"/>
  <path class="fil1" d="M2074 877c-107,501 -469,901 -960,1113 -578,-248 -912,-739 -984,-1353 258,-66 459,-260 477,-542l934 0 0 0c458,-2 628,358 534,782l0 0z"/>
  <path class="fil0" d="M2007 863c-106,487 -446,850 -894,1053 -509,-226 -827,-665 -910,-1230 239,-82 422,-266 463,-522l874 0 0 0c414,-2 550,319 467,698l0 0z"/>
  <path class="fil1" d="M1686 743l-667 0 191 -283 122 -42c15,-5 11,-16 3,-16l-114 0 -12 -124c0,-7 -11,-9 -14,0l-37 124 -119 0c-10,0 -11,12 0,16l108 39 -255 285 -539 0c-21,0 -24,36 0,37l468 59c-16,29 -42,56 -52,88 -10,33 16,59 42,53 42,-9 111,-96 139,-131l11 -17 725 -54c26,-1 25,-36 0,-36z"/>
  <path class="fil0" d="M941 1299c-5,18 -9,31 -12,40 0,-30 0,-144 0,-146 14,-1 34,-2 34,-2l3 -49 0 -85 -202 0c0,0 -23,61 -29,77 -6,-17 -29,-77 -29,-77l-206 0 0 134c0,0 22,1 37,2 0,2 0,163 0,165 -14,1 1194,1 1179,0 0,-2 0,-163 0,-165 14,-1 34,-2 34,-2l3 -49 0 -85 -437 0 0 135c0,0 23,1 38,2 0,2 0,141 0,157 -4,-8 -10,-25 -18,-61l-140 -597 -100 -1c0,0 -154,606 -154,607zm194 34c2,10 4,18 5,25 -7,0 -11,0 -21,1 0,0 0,-1 0,-1 0,0 -26,0 -40,0 1,-3 3,-13 6,-25 21,0 28,0 49,0z"/>
  <path class="fil1" d="M1167 1243l-51 -250 -60 250 111 0 0 0zm308 79l118 -144 0 -5c0,-16 -9,-31 -38,-31l0 -34 146 0 0 34c-36,0 -37,14 -37,50l0 167c0,37 3,50 37,50l0 33 -146 0 0 -33c33,0 38,-12 38,-50l0 -130 -118 145 0 6c0,20 11,29 38,29l0 33 -362 0 0 -33c26,0 43,-2 43,-28 0,-16 -7,-56 -18,-100l-131 0 -17 67 0 0c-12,44 -8,61 39,61l0 33 -302 0 0 -33c36,0 40,-12 40,-50l0 -156 -92 227 -93 -234 0 166c0,32 4,47 39,47l0 33 -112 0 0 -33c38,0 40,-23 40,-55l0 -162c0,-29 0,-50 -37,-50l0 -34 119 0 65 172 65 -172 115 0 0 34c-36,0 -37,14 -37,50l0 167c0,32 3,42 13,45 22,8 63,6 75,-18 8,-15 17,-40 26,-74l0 0 155 -607 140 596 0 0c15,65 24,81 38,95 14,12 60,21 76,3 4,-4 6,-11 6,-40l0 -167c0,-38 -3,-50 -38,-50l0 -34 147 0 0 34c-36,0 -38,15 -38,50l0 130z"/>
 </g>
</svg>
